<svg class="svg-icon" style="width: 1.3125em; height: 1em;vertical-align: middle;fill: currentColor;overflow: hidden;" viewBox="0 0 1344 1024" version="1.1" xmlns="http://www.w3.org/2000/svg"><path d="M200 716.8 704 1024 704 0 200 307.2 66.688 307.2C0 307.2 0 375.488 0 375.488l0 273.088c0 0 0 68.288 66.688 68.288L200 716.864zM64 371.328l135.808 0L640 128l0 768-440.192-248.512L64 647.488 64 371.328z" fill="#fff" /><path d="M768 760.896 768 832c0 0 192-79.552 192-320s-192-320-192-320l0 71.104c0 0 128 54.272 128 248.896S768 760.896 768 760.896z" fill="#fff"  /><path d="M1152 875.52 1152 960c0 0 192-92.096 192-448 0-355.904-192-448-192-448l0 83.072c0 0 128 70.656 128 364.928S1152 875.52 1152 875.52z" fill="#fff"  /><path d="M960 814.976 960 896c0 0 192-105.6 192-384 0-278.4-192-384-192-384l0 78.336c0 0 128 83.264 128 305.664C1088 734.4 960 814.976 960 814.976z" fill="#fff"  /></svg>