<svg class="svg-icon" style="width: 1em; height: 1em;vertical-align: middle;fill: currentColor;overflow: hidden;" viewBox="0 0 1024 1024" version="1.1" xmlns="http://www.w3.org/2000/svg"><path d="M96.6 915c-10.9-10.9-10.9-28.7 0-39.6L887 85c10.9-10.9 28.7-10.9 39.6 0 10.9 10.9 10.9 28.7 0 39.6L136.2 915c-10.9 10.9-28.6 10.9-39.6 0z" fill="#fff" /><path d="M887 915L96.6 124.6c-10.9-10.9-10.9-28.7 0-39.6 10.9-10.9 28.7-10.9 39.6 0l790.4 790.4c10.9 10.9 10.9 28.7 0 39.6-10.9 10.9-28.6 10.9-39.6 0z" fill="#fff" /></svg>