<svg class="svg-icon" style="width: 1em; height: 1em;vertical-align: middle;fill: currentColor;overflow: hidden;" viewBox="0 0 1024 1024" version="1.1" xmlns="http://www.w3.org/2000/svg"><path d="M635.392 674.978909 651.310545 674.885818C644.933818 674.885818 639.581091 675.234909 634.018909 675.490909 616.517818 682.030545 598.365091 687.220364 579.653818 690.897455 563.572364 704.442182 558.545455 727.970909 558.545455 768L558.778182 694.690909C558.685091 694.690909 558.615273 694.714182 558.545455 694.714182L558.545455 768 558.545455 837.818182C558.545455 863.534545 537.716364 884.363636 512 884.363636 486.283636 884.363636 465.454545 863.534545 465.454545 837.818182L465.454545 651.636364C465.454545 625.92 486.283636 605.090909 512 605.090909 653.381818 605.090909 768 490.472727 768 349.090909 768 207.709091 653.381818 93.090909 512 93.090909 370.618182 93.090909 256 207.709091 256 349.090909 256 374.784 235.147636 395.636364 209.454545 395.636364 183.738182 395.636364 162.909091 374.784 162.909091 349.090909 162.909091 156.299636 319.208727 0 512 0 704.791273 0 861.090909 156.299636 861.090909 349.090909 861.090909 498.338909 767.185455 625.152 635.392 674.978909ZM512 930.909091C537.716364 930.909091 558.545455 951.738182 558.545455 977.454545 558.545455 1003.170909 537.716364 1024 512 1024 486.283636 1024 465.454545 1003.170909 465.454545 977.454545 465.454545 951.738182 486.283636 930.909091 512 930.909091Z" fill="#fff" /></svg>