
<svg xmlns="http://www.w3.org/2000/svg" xmlns:xlink="http://www.w3.org/1999/xlink" version="1.1" viewBox="0 0 8 10" enable-background="new 0 0 8 8" xml:space="preserve"><path clip-rule="evenodd" d="M7,7H1C0.447,7,0,6.553,0,6V1c0-0.554,0.447-1,1-1h6c0.553,0,1,0.446,1,1v5  C8,6.553,7.553,7,7,7L7,7z M5.367,3.257l-1.9-1.211C3.42,2.021,3.371,2,3.316,2C3.141,2,3,2.142,3,2.315v2.368  C3,4.857,3.141,5,3.316,5c0.055,0,0.104-0.021,0.15-0.047l1.906-1.214c0.033-0.022,0.059-0.046,0.08-0.079  C5.541,3.522,5.502,3.347,5.367,3.257L5.367,3.257z" style="fill: white;"/>
</svg>